#!OML:ASF F:\VICON\USERDATA\INSTALL\Justin_Nancy\Justin_Nancy.ASF
:FULLY-SPECIFIED
:DEGREES
16
root 1.76916 17.4482 -25.8563 -0.921684 -2.55908 3.855
lowerback 7.42706 -0.234984 -4.05113
upperback 0.924694 -0.580092 1.79349
thorax -3.14931 -0.230863 4.20172
lowerneck -14.8686 -2.33811 -8.11447
upperneck 18.2968 -2.05502 3.64073
head 8.26273 -1.17303 2.32485
rclavicle -2.48481e-016 2.62396e-014
rhumerus -32.6174 -16.488 -76.6983
rradius 28.2489
rwrist 10.0799
rhand -12.7764 10.9045
rfingers 7.12502
rthumb 13.3088 -18.6506
lclavicle -2.48481e-016 2.62396e-014
lhumerus -26.5991 9.77111 84.6196
lradius 23.2724
lwrist -14.2343
lhand -12.1894 31.1215
lfingers 7.12502
lthumb 13.8745 420.639
rfemur -27.1505 -5.78608 16.9377
rtibia 63.5306
rfoot -5.09663 -10.4065
rtoes 9.27434
lfemur -7.6886 -1.22402 -28.08
ltibia 27.5254
lfoot -15.2694 3.12128
ltoes 0.464942
17
root 1.76666 17.4259 -25.7283 -0.812553 -2.513 3.89804
lowerback 7.63235 -0.351699 -4.25399
upperback 0.756179 -0.754756 1.97956
thorax -3.41637 -0.303667 4.53492
lowerneck -14.7588 -2.3209 -8.41311
upperneck 18.1904 -1.97322 3.66018
head 8.20664 -1.15256 2.38948
rclavicle -2.28602e-015 -1.66979e-014
rhumerus -33.0039 -16.0425 -76.4254
rradius 28.2715
rwrist 9.97177
rhand -12.7072 11.0701
rfingers 7.12502
rthumb 13.3754 -18.4806
lclavicle -2.28602e-015 -1.66979e-014
lhumerus -26.487 10.1162 84.6482
lradius 23.4021
lwrist -14.8949
lhand -12.7171 29.3717
lfingers 7.12502
lthumb 13.3659 418.923
rfemur -28.0101 -5.85455 17.0252
rtibia 62.1193
rfoot -7.07837 -9.82641
rtoes 4.11406
lfemur -7.36346 -1.32548 -28.1819
ltibia 27.6755
lfoot -15.7708 3.33255
ltoes 0.0590475
18
root 1.75791 17.4112 -25.5868 -0.686293 -2.75897 3.98559
lowerback 7.40226 -0.235008 -4.45128
upperback 0.835202 -0.605918 1.98427
thorax -3.21964 -0.234037 4.63223
lowerneck -15.0454 -2.34154 -8.45427
upperneck 18.2649 -2.01705 3.90318
head 8.28776 -1.15025 2.47317
rclavicle -1.44119e-014 2.22639e-014
rhumerus -33.1507 -16.4909 -76.1984
rradius 28.2461
rwrist 10.0062
rhand -12.4939 12.1744
rfingers 7.12502
rthumb 13.581 -17.3626
lclavicle -1.44119e-014 2.22639e-014
lhumerus -25.8997 9.40866 84.858
lradius 23.4269
lwrist -14.2547
lhand -13.9902 28.2276
lfingers 7.12502
lthumb 12.1385 417.855
rfemur -28.7546 -5.62142 17.0836
rtibia 60.5191
rfoot -8.54689 -9.65912
rtoes 0.12213
lfemur -6.99537 -1.15518 -28.3383
ltibia 27.7277
lfoot -16.2326 3.78608
ltoes 0.110791
19
root 1.74701 17.4003 -25.4434 -0.736382 -2.79923 3.96006
lowerback 7.32836 -0.177196 -4.5151
upperback 1.01989 -0.529196 1.99263
thorax -2.99427 -0.205355 4.66668
lowerneck -15.4398 -2.42248 -8.43425
upperneck 18.4446 -2.13893 4.08704
head 8.42817 -1.18665 2.51843
rclavicle -4.47266e-015 2.3059e-014
rhumerus -33.2891 -16.9191 -76.0713
rradius 28.3919
rwrist 9.69283
rhand -12.3458 12.3569
rfingers 7.12502
rthumb 13.7237 -17.1705
lclavicle -4.47266e-015 2.3059e-014
lhumerus -25.1467 8.97954 84.9795
lradius 23.3208
lwrist -14.0308
lhand -14.8192 28.5619
lfingers 7.12502
lthumb 11.3391 418.235
rfemur -29.1427 -5.50657 17.2606
rtibia 58.7467
rfoot -9.04411 -9.99893
rtoes -1.03053
lfemur -6.42859 -0.984222 -28.3198
ltibia 27.7213
lfoot -16.6383 3.91037
ltoes 0.30722
20
root 1.73722 17.3857 -25.3059 -0.803146 -2.54503 4.06646
lowerback 7.50414 -0.313055 -4.73155
upperback 1.03964 -0.733699 2.02452
thorax -3.04539 -0.303657 4.84581
lowerneck -15.345 -2.45145 -8.34321
upperneck 18.2973 -2.19492 4.02606
head 8.36346 -1.21173 2.47484
rclavicle 1.02374e-014 2.14687e-014
rhumerus -33.3615 -17.1394 -75.8704
rradius 28.2328
rwrist 9.648
rhand -12.1428 12.2025
rfingers 7.12502
rthumb 13.9193 -17.3116
lclavicle 1.02374e-014 2.14687e-014
lhumerus -24.8395 9.02941 84.9556
lradius 23.5166
lwrist -14.2712
lhand -19.0924 24.7908
lfingers 7.12502
lthumb 7.21598 414.648
rfemur -29.4533 -5.54004 17.2404
rtibia 56.8321
rfoot -9.15077 -10.507
rtoes -1.35347
lfemur -5.76412 -1.04858 -28.436
ltibia 27.5871
lfoot -16.9845 3.91992
ltoes 0.069763
21
root 1.72936 17.3708 -25.168 -0.717695 -2.22515 4.14927
lowerback 7.38799 -0.487131 -4.80645
upperback 1.07444 -0.966581 2.00956
thorax -2.91561 -0.423625 4.89216
lowerneck -15.2317 -2.44865 -8.36996
upperneck 18.0977 -2.21849 4.15395
head 8.27878 -1.20999 2.51832
rclavicle 5.76476e-015 1.51076e-014
rhumerus -33.4229 -17.329 -75.7642
rradius 28.1366
rwrist 9.73247
rhand -12.1383 11.717
rfingers 7.12502
rthumb 13.9237 -17.7968
lclavicle 5.76476e-015 1.51076e-014
lhumerus -24.4774 8.74778 84.9507
lradius 23.7825
lwrist -14.2438
lhand -20.5809 23.7483
lfingers 7.12502
lthumb 5.779 413.649
rfemur -29.8489 -5.65238 17.2535
rtibia 54.766
rfoot -8.95948 -11.0227
rtoes -3.50686
lfemur -5.18772 -1.25623 -28.5381
ltibia 27.3599
lfoot -17.2544 3.93314
ltoes 0.147941
